<svg version="1" xmlns="http://www.w3.org/2000/svg" width="2730.667" height="2730.667" viewBox="0 0 2048.000000 2048.000000"><path d="M0 1024v1024h2048V0H0v1024zm1079-826c113 8.9 217.2 38.2 314.5 88.4 215.4 111.2 371 310.8 424.9 545.1 14 60.6 19.5 107 20.3 172.2.7 53.2-1.1 82.6-7.7 129.3-29.6 207.3-139 396.3-305.4 527.4-86.2 68-187.9 119-294.1 147.5-129.5 34.8-266.6 36.9-400 6-145.8-33.8-283.4-110.7-391.5-218.9-123.3-123.4-204-281.7-230.4-452-7.3-47.2-9.1-72.5-9.1-129 .1-49.6.8-62 5.6-101C230.5 717.2 326.7 535.2 476 402.6 614.9 279.2 789.7 207.4 976.5 197c18.8-1.1 84.6-.4 102.5 1z"/><path d="M991.3 207.1C818 213 650.8 275 515.2 383.3c-43.6 34.9-88.1 79-123.7 122.7-92.2 113.3-152.2 249.8-172.9 394.1-5.8 40.1-8 70.6-8 113.9-.1 33.3.3 43.3 2.5 70 23.3 281.1 194.1 531.3 448.8 657.4 175.2 86.7 375.2 106.7 565.6 56.5 84.2-22.3 168.2-60.4 242-110 116.7-78.3 211.8-186.3 274.3-311.4 86.4-173 107.7-371.2 60.2-558.9-14.6-57.9-33.7-109.1-60.4-162.6-106.1-212.3-301-368.4-530.6-425-51.4-12.6-108.4-20.8-156.5-22.5-35.9-1.2-42.7-1.2-65.2-.4zm178.2 83.8c4.8 2.2 8.7 6 10.9 10.5 2.1 4.4 2.1 12.8 0 17.2-2.2 4.6-8.5 10-13.3 11.5-4.5 1.3-4.5 1.3-5.5 13.9-.3 3.6-5.5 60.7-11.6 127s-14 152.4-17.5 191.5c-3.6 39-8.3 90.8-10.5 115-2.3 24.2-7.2 78.2-11 120-6.6 71.6-7.4 81.4-6.5 79 .3-.6 6.1-36.1 13-79s14.1-87.5 16-99c1.9-11.6 4.8-29.6 6.5-40 1.7-10.5 5.1-31.4 7.5-46.5 2.5-15.1 7-42.8 10-61.5 6.1-37.8 11.9-73.6 16.5-101.5 29.3-180.8 29.1-179.5 27.4-180.5-3.9-2.3-9.3-7.8-10.8-10.9-2-4.1-2.1-12.5-.2-16.9.7-1.8 2.8-4.7 4.6-6.4 10-9.7 25.6-7.6 32.6 4.3 7.2 12.3-.2 28.2-14.5 31-1.8.4-3.4 1.2-3.7 1.8-.2.6-1.4 8.1-2.8 16.6-2.2 14.1-22.8 141.7-31.1 192.5-3.2 19.5-12.8 79-45 277.5-6.9 42.6-14.7 91.2-17.4 108-2.8 16.7-4.8 30.6-4.6 30.8.1.2 1.2-3.6 2.4-8.5 1.1-4.8 6.5-27 12-49.3 5.5-22.3 13-52.7 16.6-67.5 10.8-44 19.7-80 32.4-132 6.7-27 16.4-66.3 21.6-87.5 5.2-21.2 15-61.2 21.9-89 6.8-27.8 15.6-63.7 19.6-79.8l7.2-29.3-4.1-3.6c-5.8-4.9-8.1-9.9-8.1-17.1 0-5.1.5-6.7 3.3-10.8 4.6-6.8 10.3-9.7 18.4-9.2 18.6 1.1 26.5 23 12.9 35.6-3.9 3.6-7.6 5.3-14.1 6.4-1.6.3-2.8 3.9-8.1 25.3-3.4 13.8-16.2 65.7-28.4 115.5s-28.5 115.9-36.2 147c-7.6 31.1-15.7 63.7-17.8 72.5-2.1 8.8-9.1 37.1-15.5 63-6.4 25.8-13.2 53.5-15.1 61.5-2 8-6.9 28-11 44.5-4.1 16.4-7.3 30.2-7.2 30.6.2.4 31.1-86 68.8-191.9 37.6-106 73.4-206.7 79.5-223.9l11.1-31.1-3.8-3.6c-9.4-8.9-9-23.3.8-31.4 7-5.8 14.2-6.6 22.3-2.6 12.2 6.1 15.5 21.4 6.9 31.8-3.8 4.7-7.9 6.8-14.7 7.5l-5.4.6-4.3 12c-2.4 6.6-33.2 93.2-68.5 192.5-35.2 99.3-68.6 193.1-74.1 208.5-5.5 15.4-10.2 28.9-10.5 30-.4 1.8 25.6-53.4 73.7-156 58.2-124.4 85.3-182.3 93.2-199.3l9-19.3-3.5-3.9c-6.2-6.8-7.2-14.6-2.9-23.1 7.2-14.3 26.3-15.4 35.6-2.2 6.3 9 3.7 22.5-5.5 28.9-3.4 2.3-5.5 2.9-11.1 3.2l-7 .4-3.3 7.2c-2.9 6.3-34.5 73.9-65.5 140.1-14.5 31-32.9 70.3-76 162.5-19.9 42.6-36.7 78.4-37.3 79.5-.5 1.1-.7 1.7-.3 1.3.4-.3 44.6-70.7 98.1-156.4l97.4-155.8-2.4-2.8c-3.3-3.9-4.8-9.2-4.3-15.4 1.5-18.2 24.9-25 36.6-10.8 5 6 6.2 15.3 3 21.9-4.1 8.1-14.6 13.5-22.9 11.6-2.4-.5-4.4-.9-4.5-.8-.3.3-194.3 310.7-195.1 312.1-.4.7-.3.8.5.1.5-.6 44.2-54.3 97-119.4l95.9-118.3-2.3-4.2c-1.7-3-2.4-5.7-2.4-9.9 0-18.1 20.2-27.8 33.8-16.2 5.1 4.5 7.2 9 7.2 15.9 0 9.3-5.2 16.9-13.6 19.6-3.2 1.1-6.3 1-16-.2-1.7-.2-14 14.4-62.9 74.7-83.8 103.3-124.6 153.7-125.9 155.5-.5.8 26.2-25.5 59.4-58.4 33.3-33 64.3-63.7 69-68.3 7.6-7.5 8.4-8.5 7.3-10.3-2.3-3.6-3.2-10.2-2.2-15 3.3-15.4 22.9-21.4 34.7-10.6 4.5 4 6.5 9.3 6 16.2l-.4 6.3 5.6-4.7c3-2.6 10.2-8.7 16-13.6 5.8-4.9 10.6-9 10.7-9 .1-.1-.5-2.4-1.3-5.1-6.1-19.9 17.8-35.8 33.3-22.2 11.2 9.8 9.2 27.6-3.9 34.1-6.6 3.3-12.8 3.4-19 .3l-4.6-2.3-25.4 21.5c-13.9 11.9-50.6 43-81.3 69.1-115.3 97.7-106.3 90-103.5 88.4.8-.4 8-5.1 16-10.3 8-5.2 51-33.1 95.5-62.1 146.5-95.3 154-100.2 154.2-100.4.1-.1-.2-2-.8-4.1-1.5-5.5.3-13.1 4.3-17.9 11.7-14.3 35.3-7 36.6 11.3.3 3.7-.1 6.9-1.1 9.4l-1.6 3.7 2.7-.7c10.3-2.9 21.9 3.2 25.2 13.3.7 2 1 6.1.8 9-1.4 17-22.3 24.6-35 12.7l-2.6-2.5-30.4 15.7c-16.6 8.7-35.7 18.5-42.3 22-16 8.3-45.7 23.7-67.4 34.9-70 36.1-141 73.1-140.7 73.3.1.2 8.6-2.9 18.7-6.8 23.6-9.1 179.9-69 224.5-86 34-13 34-13.1 33.6-15.8-.7-4.8 1.7-11.1 6-15.7 9.3-10 24.3-8.9 32.2 2.4 4.2 6 4.8 14.8 1.4 21.2-3.3 6-9.3 10.1-15.7 10.8-7.8.7-11.5-.4-16.9-5.3l-4.9-4.4-7.9 3.1c-9.5 3.7-159.1 61-231.2 88.5-28.1 10.8-51.1 19.8-50.9 19.9.1.2 9.9-1.9 21.7-4.6 11.8-2.7 47.8-10.8 80-18 32.2-7.2 72.2-16.2 89-20 46.8-10.5 99.4-22.4 120.8-27.1 18.9-4.3 19.2-4.4 19.2-6.9 0-4.2 5.1-13.3 8.9-15.8 5.4-3.5 10.8-4.6 16.7-3.3 12.8 2.9 19.9 16.8 14.5 28.7-6.3 13.9-24.7 16.6-34.7 5.2-1.8-2-3.3-4.1-3.5-4.7-.4-1-24.9 4.3-164.9 35.9-17.3 3.9-50 11.2-72.7 16.3-22.6 5-41 9.3-40.8 9.5.3.3 25.5-3.5 175-26.3 141.7-21.7 173.6-26.5 174.4-26.5.5 0 1.4-2.2 2.1-4.8 4.7-19.8 31.6-21.8 39.4-3 6.7 16-9.2 33.1-25.5 27.7-5.1-1.7-9.7-5.5-11.9-9.8l-1.9-3.8-15.3 2.3c-8.4 1.3-43.4 6.6-77.8 11.8-34.4 5.3-92 14-128 19.5s-87.3 13.3-114 17.3c-26.7 4-47 7.4-45.2 7.6 1.7.2 22.7-.6 46.5-1.8 23.7-1.1 61.7-2.9 84.2-4 22.6-1.1 60.4-2.9 84-4 23.7-1.1 56.5-2.7 73-3.5 16.5-.8 40.1-1.9 52.5-2.5 12.4-.5 31.7-1.5 43-2 11.3-.6 34.7-1.7 52-2.5 17.3-.8 40.1-1.9 50.5-2.5 10.5-.5 25.6-1.2 33.8-1.6l14.7-.7 1.2-4.1c1.7-5.7 8.2-11.9 14-13.5 16.6-4.7 31.8 12 25.2 27.7-7.1 17.1-30.8 17.5-38.5.7l-1.8-4-7.8.3c-4.3.2-21.3.9-37.8 1.7-42.5 2.1-69.7 3.3-94.5 4.5-21 1-31.2 1.5-94.5 4.5-47.3 2.3-71.9 3.4-84.5 4-6.3.3-20.5 1-31.5 1.5-11 .6-53.7 2.6-95 4.5-41.2 2-75.4 3.7-76 4-.5.2 2.6.4 7 .4 4.4.1 20.2.6 35 1.1 14.9.5 40.7 1.4 57.5 2 43.7 1.5 84.1 2.8 118 4 76.1 2.6 91.5 3.1 134.5 4.5 80.7 2.7 150.4 5.1 176.7 6.1l15.6.6.6-2.9c1-4.2 5.9-9.8 10.9-12.2 13.5-6.5 29.7 3.8 29.7 18.9 0 15.1-16.2 25.4-29.7 18.9-4.9-2.4-10-8-11.1-12.4-.7-2.5-1.5-3.1-4.8-3.6-2.1-.4-21-1.2-41.9-1.8-20.9-.7-49.5-1.6-63.5-2.1-30.5-1.2-68.4-2.5-130.5-4.5-70.3-2.3-102.7-3.4-117.5-4-18-.7-37.9-1.3-58-2-9.1-.3-22.3-.7-29.5-1-7.1-.3-27.4-1-45-1.5s-36.9-1.2-43-1.5c-6-.3-10.5-.3-10 0 .6.2 94.2 11.3 208 24.4 113.9 13.2 214.7 24.9 224 26 17.8 2.1 22.6 2.7 52 6 9.9 1.2 19.5 2.4 21.3 2.7 2.3.3 3.2.1 3.2-.9 0-.8 1.3-3.3 3-5.5 8.6-11.9 26.3-11.3 34.4 1.1 5.1 7.9 4.3 17.7-2 24.7-4.5 5-9 7-15.5 7-10 0-19.1-7.1-20.5-16l-.6-3.7-10.7-1.2c-5.8-.7-14-1.6-18.1-2.2-4.1-.5-83.1-9.7-175.5-20.4S1277.6 1109 1235 1104c-42.6-4.9-77.9-8.9-78.4-8.7-.4.1 6.8 2 16 4.1 9.3 2.1 99.7 22.7 200.9 45.8 172.3 39.3 184.1 41.8 185 40.1.6-1 2.6-3.4 4.6-5.3 10.3-10.3 27.6-6.5 33.3 7.2 7.3 17.3-11.3 34.8-28.1 26.7-5.8-2.8-9.4-7.5-11.4-14.6l-1.6-5.8-193.4-44.2c-106.4-24.3-194.1-44.2-194.9-44.2-1.9.1-6.4-1.5 56 18.9 28.9 9.4 78.4 25.6 110 36 70.7 23.2 76.3 25 77.3 25 .4 0 2.3-1.8 4.3-3.9 12.6-14 35.7-5 35.7 13.9 0 15.8-15.8 25.6-30 18.5-6.7-3.4-10.4-8.7-11.2-16.2l-.6-5.7-48.5-15.9c-26.7-8.7-74.6-24.4-106.5-34.9-31.9-10.4-70.8-23.2-86.5-28.3-15.7-5.2-39.3-12.9-52.4-17.2-17.2-5.6-24-8.3-24.4-9.5-.2-.9-.9-1.5-1.5-1.2-.8.3-8-23.9-21.1-70.3-11-39-25.6-91-32.6-115.8l-12.7-45-4.9-1.1c-12.1-2.7-18.4-9.8-18.4-20.9 0-12.1 8.4-20.5 20.5-20.5 12 0 20.6 8.6 20.6 20.5 0 6.8-2.3 11.7-7.6 16.1l-4.1 3.5 23.5 83.4c12.9 45.9 23.6 83.3 23.7 83.2.2-.1-2.1-14.2-5.1-31.2-2.9-17.1-8.1-47-11.5-66.5-3.3-19.5-9.9-57.3-14.5-84-4.6-26.7-13.1-76.2-19-110-12.2-71.2-11.2-66-12.8-66-3.4 0-9.2-2.5-12.4-5.3-9.6-8.4-9.6-22.9 0-31.4 13.4-11.7 34.1-2.2 34.1 15.7 0 8.3-5.6 16.9-12.7 19.3-1.1.3 1.6 17.1 13.2 84.2 1.7 9.3 8.2 47.1 14.6 84 13.1 76 15.8 91.5 18.5 107 1.1 6 4.4 25.6 7.5 43.5 5.5 32.2 6.9 39.2 6 29.5-.3-2.8-2.1-26.2-4-52-2-25.9-4.6-61.4-6-79-1.4-17.6-4.5-59-7-92-4-52.8-6.6-86.8-14.5-190.5-1-14-3.1-41-4.5-60-3.4-46.2-2.7-42.5-7.6-43.9-15.5-4.7-19.9-25-7.6-35.8 11.6-10.2 29.8-4.3 33.9 10.9 2.3 9-2.5 19.2-11 23.3-3.4 1.7-4.1 2.5-4.2 4.9 0 1.6 1.8 26.2 4 54.5 2.1 28.4 6 78.6 8.5 111.6s5.4 71.5 6.5 85.5c2.8 36.3 15.7 206.5 17.6 231.5.8 11.5 1.9 23.7 2.3 27 .8 5.7.9 5.4 1-4.5.1-11.9 2.6-155.2 4.1-243 1.3-73.6 2.8-160.8 3.5-203 .3-17.9.7-41.7 1-53 .3-11.3.7-40.3 1.1-64.5l.6-44-5.4-2.5c-6.7-3.1-10.6-8.5-11.4-15.6-2.4-20.3 22.8-31.5 36.3-16.1 6.7 7.6 6.9 17.9.6 26.5-2.4 3.2-8.9 7.2-11.8 7.2-1.2 0-1.5 1.6-1.5 9.2-.1 5.1-.3 13.6-.5 18.8-.2 5.2-.7 25.7-1 45.5-.3 19.8-1 61-1.5 91.5s-1.7 96.4-2.5 146.5c-.8 50-2 115.3-2.5 145-1.2 71.1-2 138.6-1.4 135.5.2-1.4 4-42.3 8.4-91 6.8-74.4 15.4-168.4 29.5-322 16.5-180.4 21.5-235.5 21.5-236.9 0-.9-2.2-2.8-5-4.3-14.4-8-13.9-28.3.9-36 6.3-3.3 11.8-3.6 17.6-.9zM655.1 997.3c5.4 2.9 9.9 9 10.6 14.5.4 3.2 1.1 4.3 2.7 4.7 1.1.3 8.6 1.6 16.6 3 8 1.3 50.7 8.8 95 16.5 44.3 7.7 97.4 17 118 20.6 20.6 3.6 56.4 9.9 79.5 13.9 23 4.1 42.1 7.3 42.2 7.1.2-.2-12.4-3.9-27.9-8.4-15.6-4.5-53.1-15.3-83.4-24l-55.1-15.9-3.2 3.9c-13.4 16-38.9 5.5-36.9-15.3 1.5-14.8 18.6-23.2 31.5-15.3 5.4 3.3 10.3 11.4 10.3 17 0 3.2.2 3.4 6.8 5.3 3.7 1.1 20 5.8 36.2 10.5 16.2 4.6 62.6 18 103 29.7 40.4 11.6 76.1 21.8 79.3 22.7 3.4.9 5.7 2 5.7 2.8 0 .8.6 1.4 1.3 1.4.7 0 3.8 7.6 7.4 18.3 37.7 111.4 68.1 201.3 88.7 262.7l12.3 36.5 5.1.6c15.6 2 24.4 17.8 17.2 30.9-10.5 18.9-39 11.7-39-9.9 0-6.3 2.5-11.6 7.5-16 2-1.7 3.3-3.6 3-4.1-.4-.6-5.5-15.6-11.5-33.3-11.6-34.6-55.7-165.2-66.1-195.9-3.5-10.3-6.5-18.5-6.6-18.4-.2.1 4.9 22.5 11.1 49.7 19.8 85.7 71.6 309.9 74.7 322.9 1.6 6.9 3.1 13.5 3.4 14.6.4 1.7 1.4 2.2 5.1 2.7 9.8 1.1 17.4 10 17.4 20.4 0 16.5-18 26.5-31.7 17.7-9.5-6.2-12.4-17.2-7.2-27.5 1.8-3.6 7.2-8.9 9-8.9.5 0 .9-.7.9-1.6 0-.9-19.2-84.5-42.6-185.8-23.4-101.2-43.9-190.3-45.6-197.8-1.7-7.6-3.3-13.6-3.5-13.5-.2.2 1.9 19.2 4.6 42.3 5.5 46.3 10.8 91.6 23.6 200.9 4.7 40.1 11 94.1 14 120 3.1 25.8 8.6 72.8 12.3 104.4l6.7 57.4 4.8 1.4c9.7 2.8 17 13.8 15.2 23-.8 4.5-3.6 10.2-6.2 12.5-2.8 2.6-10.4 5.8-13.8 5.8-8.1 0-15.8-4.8-19.6-12.1-2.5-5-2.5-12.8 0-17.8 1.8-3.5 8.2-10.1 9.9-10.1 3.3-.1 3.2-1.5-6.3-83.1-5.2-44.8-12.2-104.4-15.5-132.4-3.3-28.1-9.8-83.4-14.4-123-4.6-39.6-11-94.4-14.2-121.7-3.2-27.3-6-49.5-6.2-49.4-.3.3 1 50.6 2.3 87.6.3 8.5 1 31.5 1.5 51s1.2 42 1.5 50c.3 8 1 30 1.5 49 2.4 84.1 4.1 141.9 5 172 .5 17.9 1.4 49.4 2 70 .6 20.6 1.3 42.5 1.6 48.6l.6 11.2 4.3 1.6c14.7 5.7 18.1 25.3 6.1 35.3-6.9 5.7-14.2 6.6-22.2 2.9-12.8-6-16.3-21.8-7.1-32.3 1.8-2 5.2-4.5 7.6-5.6l4.4-1.9-.7-21.7c-.4-11.9-1.3-44.3-2.1-72.1-.8-27.8-1.9-65.8-2.5-84.5-1.3-43.7-2.8-94.1-4-137-1-36.4-1.5-52.8-3-100-.5-16.5-1.5-49.5-2.1-73.4-.7-23.9-1.4-43.1-1.6-42.5-.1.5-2.7 50.8-5.8 111.9-3 61-6.4 128.8-7.5 150.5-3.4 66.9-3.9 78.5-5.5 110.5-.8 17-2 40.4-2.6 52-.5 11.5-1.8 36.2-2.7 54.8l-1.7 33.9 3 1.2c10.9 4.6 16.3 17 11.9 27.4-6.1 14.6-25.3 17.7-35.2 5.6-5.7-6.9-6.6-13.9-2.8-22 2.6-5.7 7.3-9.8 12.6-11.1l3.5-.9.6-8.5c.4-4.6.9-14.5 1.3-21.9.3-7.4 1.8-35.8 3.1-63 1.4-27.2 3-58.7 3.5-70 .5-11.3 1.2-24.6 1.5-29.5.3-5 2.1-40.7 4-79.5s4.4-88.3 5.5-110c1.1-21.7 2.9-58 4-80.5 1.1-22.6 2.4-48.2 3-56.9.5-8.8.8-16.1.6-16.3-.4-.4 2.2-16.9-31.7 203.6-25.7 167.9-27.1 177.6-25.4 178.5 4.3 2.5 8.9 7.4 10.6 11.1 5.2 11.4-1.3 25.1-13.7 28.5-14.6 4.1-29-9.9-25.4-24.9 1.9-8.2 10.5-16 17.7-16.1 1.5 0 2.3-.8 2.7-2.7.3-1.6 6.9-44 14.6-94.3 20.5-133.8 33.7-219.3 36.6-237.4 1.3-8.7 2.3-16 2.1-16.3-.3-.2-.7 1.1-1.1 2.9-.8 4.5-32.8 145.7-49.1 217.3-11.6 50.5-13.1 58.1-11.8 59 8 5.2 11.3 10.8 11.3 19 0 12-8.5 20.5-20.5 20.5-22.2 0-28.7-29.3-8.8-39.4 1.8-.9 4.6-1.6 6.3-1.6 2.2 0 3.3-.6 4-2.3.5-1.2 4.8-19.3 9.5-40.2 8.9-39.6 24.3-107.4 49-215.9 8-35.2 14.3-64.1 14.1-64.3-.2-.3-.7.6-1.1 1.9-.6 2-11.1 30.4-58 157.8-4.6 12.4-16.2 44-25.9 70.2-9.6 26.2-18.2 49.3-19 51.2l-1.5 3.5 4.4 4.3c7.9 7.9 8.6 18.4 1.8 27.6-5.7 7.6-17.6 10-26.3 5.2-11.8-6.6-14.5-21.6-5.7-31.6 3.9-4.6 8-6.6 14.6-7.3l5.4-.6 17.9-48.5c9.8-26.7 32.8-88.8 51-138 18.1-49.2 33.2-90.4 33.5-91.5.5-2-10 18.1-56.2 108.5-14.5 28.3-40.3 78.9-57.4 112.3-17.1 33.5-31.1 61-31.1 61.2 0 .2 1.2 1.7 2.6 3.2 8.1 8.6 7.1 22.5-2.2 30.1-4.3 3.6-11.9 5.7-16.6 4.7-5.8-1.2-11.6-5.3-14.5-10.2-2.1-3.7-2.7-5.9-2.7-10.9 0-6.1 0-6.2-2.4-5.3-8.3 3.2-19.6-2.1-24.4-11.4-1.6-3.2-1.9-5.4-1.6-10.3.5-7.9 3.8-13 11-16.9 4.5-2.5 5.8-2.7 11.7-2.2l6.7.5 11.6-18.1c22.5-35.3 94.9-148.8 125.4-196.7 17.1-26.7 31.8-49.9 32.9-51.5l1.8-3-2.5 2.5c-1.4 1.4-14.2 16.2-28.5 33s-54.1 63.5-88.6 103.8l-62.6 73.3 1.9 3.3c2.6 4.4 3.5 11.2 2 16.4-1.6 6-8.1 12.4-14.3 14.2-19.7 5.5-34.9-18.4-21.4-33.7 5.8-6.6 15.5-9.1 23.2-5.9l3.4 1.5 8.8-10.2c4.8-5.6 11.1-12.9 14-16.3l5.3-6.1-4.9.5c-20.4 1.9-31.2-23.6-15.5-36.6 6.6-5.5 15-6.5 22.6-2.8l3.2 1.7 68.6-68.8c37.7-37.8 67.6-68 66.5-67.2-1.1.9-14.6 11.7-30 24-15.4 12.4-58.8 47.2-96.5 77.4-104.9 84.1-103.6 83-103.1 85.1 1.5 7.5 1.2 14.4-.8 18.2-4.4 8.6-14.1 13.4-23.1 11.2-13.2-3.2-19.9-17.9-13.7-30 5-9.9 17.8-13.9 28-8.7l4.8 2.5 67.2-54c36.9-29.6 89.3-71.6 116.2-93.2 27-21.6 50.1-40.3 51.5-41.6l2.5-2.2-2.5 1.4c-3.1 1.8-117.7 72-228 139.6l-81.5 50v7.3c0 8.9-2.6 14.3-8.8 18.6-3.5 2.5-5 2.8-11.7 2.8-6.7 0-8.2-.3-11.7-2.8-12.5-8.7-11.6-28.3 1.7-35.4 3.8-2.1 5.6-2.4 11.2-2.1 5.5.3 7.5.9 11 3.4l4.3 3 152.7-93.6c84-51.5 153.1-94 153.5-94.4.9-.9 3.1-1.9-79.2 36.4-35.7 16.6-92 42.7-125 58-33 15.4-87 40.4-120 55.8l-60 27.8-.2 5.3c-.3 7.8-1.9 11.5-6.7 15.9-8.6 8-19.3 8.1-27.8.4-5.1-4.6-6.8-8.5-6.8-16 0-17.6 21.8-26.7 34.8-14.5l3.5 3.3 75.1-34.9c41.3-19.2 105-48.9 141.6-65.8 36.6-17 87.7-40.8 113.7-52.9 25.9-12 47-22 46.8-22.2-.2-.2-6.5 1.9-14.2 4.5-7.6 2.7-108.8 37.7-224.9 77.8l-211.2 72.9-.4 5.8c-.5 7.3-4.4 13.1-10.8 16.6-6.4 3.4-15.2 2.8-21.2-1.3-6.3-4.5-9-10.4-8.6-18.7.3-5.7.8-7.3 3.4-10.4 4.1-5.1 7.1-7.1 12.6-8.6 6.7-1.7 14.2.7 19.3 6.4 3.5 3.8 3.9 4 6.9 3 1.7-.5 15.5-5.3 30.6-10.5 63.8-22.1 192.5-66.6 217.5-75.2 14.9-5.1 62.3-21.5 105.5-36.5 43.2-14.9 81.3-28.1 84.8-29.2 3.4-1.2 6.1-2.3 5.9-2.5-.2-.2-10.9 2.2-23.8 5.2-34.6 8.3-35.1 8.4-144.9 34.5-55.8 13.3-158.9 37.8-229 54.5-70.1 16.6-134.8 32-143.7 34.1l-16.3 3.8v3.1c-.1 7.6-7.3 16.4-15.2 18.6-20.7 5.5-35.4-19.5-20.4-34.6 8.6-8.5 20.4-8.6 29-.2 2.4 2.3 4.5 4.8 4.7 5.5.3 1 16.2-2.4 63.9-13.8 76-18.1 71.6-17 111.5-26.5 46.9-11.1 46.9-11.1 60.5-14.4 6.9-1.6 76.2-18.1 154-36.6s143.1-34 145-34.5l3.5-1-4 .4c-3.2.3-470.2 74.1-567 89.6-13.7 2.2-30.2 4.8-36.4 5.8l-11.5 1.8-1.2 4.7c-3.5 13.8-18.7 20.4-30.8 13.3-14.4-8.4-13.3-29.8 1.9-36.7 10.2-4.7 21.7-.3 28 10.6 1.1 1.8 20.7-1.2 410-63.1 66.7-10.6 143.2-22.7 176.5-28 28.3-4.4 35.5-5.8 25-4.8-3 .2-148.8 12.4-324 26.9-175.2 14.6-321 26.7-324 27l-5.6.6-1.7 4.9c-5.5 15.5-24.6 19-35.5 6.6-12.8-14.6 1.5-38.2 20.3-33.5 6.2 1.6 11.9 6 14.1 10.8 1.5 3.5 2.2 4.1 4.9 4.1 1.7 0 86.7-7 189-15.5 102.3-8.6 193.9-16.2 203.5-17 110.1-9.1 258.9-21.6 260.5-21.9 1.1-.2-9.9-.2-24.5 0s-49.7.6-78 .9c-113 1.2-332 3.6-408.5 4.5-44.5.5-81.6 1-82.2 1-.7 0-1.3.7-1.3 1.5 0 5.3-7 13.1-13.9 15.4-16.7 5.5-32.6-12.3-25.2-28.4 7.3-16.1 29.7-16.5 37.1-.7l2.5 5.4 64-.6c35.2-.4 101.6-1.1 147.5-1.6 45.9-.6 121.3-1.4 167.5-2 46.2-.5 113.3-1.2 149-1.5 35.8-.3 69.7-.9 75.5-1.2l10.5-.7-15.5-1.3c-8.5-.7-45.9-3.8-83-6.8-132.4-10.9-189.3-15.6-243-20-69.5-5.7-150.3-12.3-160-13-4.1-.3-8.5-.8-9.6-1-1.7-.4-2.5.2-3.5 2.6-3.2 7.9-10.5 12.9-18.9 12.9-22.7 0-29.6-29.1-9.3-39.4 7-3.5 18.6-1.3 23.9 4.6 2.6 2.8 5.4 8.1 5.4 10.2 0 .8.4 1.7.9 2 .7.5 29.7 3 141.1 12.1 16.8 1.4 60.7 5 97.5 8 36.9 3 83.7 6.9 104 8.5 38.8 3.2 57.6 4.7 127.9 10.5 23.6 2 43 3.4 43.2 3.2.2-.2-7.8-1.8-17.9-3.5-10-1.8-46.5-8.2-81.2-14.2-34.6-6.1-78.5-13.8-97.5-17.1-32.2-5.6-59.6-10.4-119.9-21-22.7-4-24.4-4.1-25.3-2.5-1.8 3.3-7.1 8.7-9.8 10.1-10.2 5.3-22.7.9-28.2-9.8-3-6-2.2-15.2 1.7-20.9 4-5.5 10.3-8.8 17-8.8 3.5 0 6.6.8 9.6 2.3z"/><path d="M1383.4 897.4c-12.1 7.8-52.7 34.3-90.4 58.8s-84.3 54.8-103.7 67.4c-19.4 12.6-36 23.5-37 24.2-2.5 1.8 12.7-6 169.7-87.3 15.1-7.8 37.2-19.2 49-25.3 11.8-6.1 29.2-15.1 38.5-20l17-8.8-.3-4.2c-.3-3.8.5-8 2.3-12.4.6-1.6.4-1.7-2.4-.7-4.4 1.6-11.1.3-16.3-3l-4.5-2.9-21.9 14.2zM1216 964.2c-33.3 33-59.1 59-57.5 57.7 4.9-3.8 134.5-114 134.5-114.3 0-.2-2-.4-4.5-.4-2.4-.1-5.8-.8-7.4-1.7-1.7-.8-3.4-1.5-3.8-1.5-.4.1-28 27.1-61.3 60.2zM1103.2 980.5c0 1.6.2 2.2.5 1.2.2-.9.2-2.3 0-3-.3-.6-.5.1-.5 1.8zM965.1 1217.4l-59.3 59.3 1.7 3.3c.9 1.8 2 5.3 2.4 7.8l.6 4.4 55-64.3c64.6-75.6 59.8-69.9 59.3-69.9-.2 0-27 26.7-59.7 59.4zM1013.8 1210.8c-18.4 29-52.8 82.8-76.3 119.7-54.8 85.7-49 76.2-47.2 78.3 3.2 3.7 5 8.8 5 14.2v5.5H910l32.6-64c18-35.2 35.3-69 38.4-75 3.2-6.1 18.5-36 34-66.5s29.4-57.4 30.7-59.8c1.4-2.4 2.3-4.5 2.1-4.7-.2-.2-15.5 23.3-34 52.3z"/></svg>