<svg xmlns="http://www.w3.org/2000/svg" width="458.579" height="74.863" viewBox="0 0 458.579 74.863">
  <g id="Group_154" data-name="Group 154" transform="translate(-100.486 -11.979)">
    <g id="Group_8" data-name="Group 8">
      <g id="Group_7" data-name="Group 7">
        <g id="Group_6" data-name="Group 6">
          <path id="Path_14331" data-name="Path 14331" d="M143.327,51.24l-.161-.32c-1.912-.157-2.705,1.754-4.461,2.071-.477.157-1.114.638-.952,1.275a1.728,1.728,0,0,0,1.593,1.117C140.779,54.266,143.647,53.79,143.327,51.24Z" fill="#9ad1e2"/>
          <path id="Path_14332" data-name="Path 14332" d="M133.928,61.116c-1.435.957-3.348,1.435-4.463,3.028-.954-.158-1.272.8-2.228.955-1.274,1.75-3.824,1.75-5.257,3.983.952,1.117,2.23-.474,3.344-.474,2.072-1.437,4.141-1.915,6.532-2.872,1.912.163,3.026-2.068,4.938-1.75,1.115-1.276,2.87-1.276,3.985-2.39-.479-1.115-.8-3.026-2.551-3.026C136.794,59.205,135.361,60.321,133.928,61.116Z" fill="#9ad1e2"/>
          <path id="Path_14333" data-name="Path 14333" d="M143.488,40.721c-.957.639-2.073.639-3.027,1.116a16.564,16.564,0,0,0-4.3,3.828,4.46,4.46,0,0,0-.163,3.5c1.6.163,2.872-1.272,4.148-2.069,1.271-1.911,4.3-3.342,4.14-6.211Z" fill="#9ad1e2"/>
          <path id="Path_14334" data-name="Path 14334" d="M140.461,64.144c-2.87-.641-4.465,2.705-7.172,3.027-2.389,1.274-4.459,3.187-6.689,4.62a5.378,5.378,0,0,0-2.39,1.434l-2.55.8c-1.276-.476-2.869-.476-3.189-1.913.163-.956-.478-2.231.48-3.028,1.592-1.752,4.3-2.233,5.894-4.14.957-.481,2.551-.637,3.188-2.072a25.486,25.486,0,0,0,4.619-2.389,10.892,10.892,0,0,1,4.3-3.345,1.268,1.268,0,0,0,.317-1.753c-.637-1.911-3.026,0-3.665-1.911-1.751-1.754-.794-4.941-.318-6.853a18.182,18.182,0,0,1,2.55-4.141,40.346,40.346,0,0,1,6.692-4.941c1.591-1.275,4.618-.159,5.1-2.709.318-.954,1.435-2.549.161-3.344-1.593-.48-2.232,1.274-3.668,1.115-1.752.318-3.023,1.912-4.937,1.75-.48-.156-.8.162-1.276-.156a2.646,2.646,0,0,1-1.274-1.594,3.741,3.741,0,0,1,.8-2.55c1.59-1.115,3.5-2.389,4.458-3.983a15.323,15.323,0,0,0,3.824-4.141c1.431-1.435,2.392-3.028,3.664-4.461a7.315,7.315,0,0,1,.958-1.437c.476-.159.476-.794.637-1.113a6.2,6.2,0,0,0,1.5-2.935H120.937l-20.4,35.342c.567-.018,1.145-.026,1.755,0,.968.045,1.986.215,3.041.367a19.7,19.7,0,0,0,3.246.24,26.184,26.184,0,0,0,3.353-.253c1.123-.144,2.246-.307,3.354-.36s2.195-.109,3.248-.164a45.194,45.194,0,0,1,5.758.155c1.686.152,3.09.348,4.073.52s1.547.32,1.547.32v.209s-.563.149-1.547.318-2.387.371-4.073.519a43.938,43.938,0,0,1-5.758.155l-3.248-.163c-1.108-.053-2.231-.215-3.354-.356a25.488,25.488,0,0,0-3.353-.256,19.925,19.925,0,0,0-3.246.241c-1.055.153-2.073.32-3.041.364-.625.032-1.219.023-1.8,0l20.451,35.423h14.944c-.277-.191-.553-.385-.839-.547-.477-1.277-1.753-2.55-.8-4.142.319-1.757,1.75-3.031,2.389-4.782-.159-1.274,1.274-1.59,1.118-2.87.634-1.433,1.115-3.025,1.593-4.459A6.56,6.56,0,0,0,140.461,64.144Zm-9.078-49.069c.317-.322.473.317.793.473.317.8,1.113,2.394,2.229,2.236,1.273-1.277,3.031-1.592,4.143-3.031.8-.638,1.913-.638,2.551-1.435h.316a28.3,28.3,0,0,0-4.46,7.172c-.637.954-1.116,1.913-2.073,2.233-1.752.154-2.706-1.6-3.5-2.873A23.519,23.519,0,0,1,131.383,15.075Z" fill="#9ad1e2"/>
          <path id="Path_14335" data-name="Path 14335" d="M180.367,48.832a29.059,29.059,0,0,0-3.587-.256,22.783,22.783,0,0,0-3.474.241c-1.128.153-2.218.32-3.251.361-1.033.062-2.013-.008-2.914-.028-.9-.056-1.729-.107-2.462-.19s-1.37-.173-1.9-.26a16.178,16.178,0,0,1-1.653-.341V48.15a15.135,15.135,0,0,1,1.653-.343c.528-.088,1.166-.185,1.9-.258s1.56-.136,2.462-.19c.9-.023,1.881-.09,2.914-.031,1.033.042,2.123.208,3.251.364a22.532,22.532,0,0,0,3.474.24,29.852,29.852,0,0,0,3.587-.253c.984-.12,1.966-.233,2.938-.307L162.87,11.979H161.3a1.96,1.96,0,0,1,.026.7c-.318.956-1.433,1.276-1.591,2.231-.957,1.113-2.55,1.593-3.347,2.87-2.232.953-3.663,2.865-5.9,4.141-.478,1.113-1.752,1.274-2.55,2.23-3.185,2.389-6.693,4.46-10.038,6.849a.511.511,0,0,0,.478.48c.481,0,.959-.8,1.594-.319,2.23-1.435,5.1-1.6,6.85-3.666,1.279-1.433,2.709-3.026,4.781-2.387,1.754.154,3.5,0,4.78,1.432.479,1.753-1.912,2.39-2.869,3.5-1.911,1.435-2.23,3.825-3.666,5.894,1.12.795,2.712.637,3.666,1.752.8.959.164,1.752,0,2.872-.794,1.111-2.069,1.591-2.546,2.866.477.8,1.272,0,1.907.321,1.6.953,3.508,1.911,3.987,3.981-.956,1.43-2.868,1.752-3.987,3.028a28.433,28.433,0,0,0-7.483,4.779c.157,1.111-.8,2.389.157,3.185.639.319.639-.635,1.117-.8,2.231-1.438,5.416.478,7.168-1.752,1.117-.322,2.23-1.432,3.507-.956.951.477,2.228.16,3.345.319a12.73,12.73,0,0,1,5.416,1.753,1.207,1.207,0,0,1,.159,1.593c-1.113.957-3.026.317-4.621.637-3.348.32-7.328-.32-10.672,1.11-1.6,0-3.187-.314-4.3,1.118a1.7,1.7,0,0,0-1.6,1.432,5.893,5.893,0,0,1-.154,2.39,1.347,1.347,0,0,1-1.115,0c-.481.161-.642-.476-.957-.954a.708.708,0,0,0-.8-.16c-.638.958-.159,2.072-.954,2.869.316,1.115-.8,1.593-.638,2.549a26.989,26.989,0,0,0-1.276,3.823l.479.478c1.276-.793,2.547-1.272,3.824-2.07.32-.8.8-.319,1.274-.478a20.723,20.723,0,0,1,2.547-1.433c1.115.317,1.279-1.117,2.392-.8a15.994,15.994,0,0,1,7.17-1.909,11.526,11.526,0,0,1,4.778,4.777c-.158,2.074-1.91,3.668-3.348,4.78l-.632.955c-1.754,1.754-3.348,3.03-4.94,4.782-.319.8.637.318.958.637,1.112.16,2.705-.637,3.5.8a.818.818,0,0,1,.779.389h4.9l20.477-35.471C182.362,49.068,181.367,48.948,180.367,48.832Z" fill="#9ad1e2"/>
          <path id="Path_14336" data-name="Path 14336" d="M153.283,74.036c.183-.325.537-.325.757-.555a.35.35,0,0,0,.1-.33c-.079-.365-.668-.752-.931-.957-.143-.112-.417-.473-.573-.516-.251-.062-.6.233-.83.309-.263.085-.546.121-.815.226a5.61,5.61,0,0,0-1.65.856,2.065,2.065,0,0,0-.476.663,1.17,1.17,0,0,1-.25.369c-.2.161-.387.332-.579.5a7.27,7.27,0,0,1-.693.585,1.245,1.245,0,0,1-.205.133,2.506,2.506,0,0,0-.541.4,1.987,1.987,0,0,0-.272.4,1.466,1.466,0,0,1-.09.151,1.533,1.533,0,0,1-.225.238,2.328,2.328,0,0,0-.442.5,1.729,1.729,0,0,0-.213.656,1.112,1.112,0,0,1-.05.24,2.865,2.865,0,0,1-.289.486,2.289,2.289,0,0,0-.523,1.338,4.452,4.452,0,0,1-.077.662,3.678,3.678,0,0,0-.061,1.19,4.728,4.728,0,0,0,.673,1.714,5.749,5.749,0,0,1,.461.958c.017.062.043.155.074.27.005.023.01.05.013.073.187.807.256,2.231.967,2.234l.307-.157c.073.093.069-.417.181-.462.21-.064.322-.523.44-.785a5.506,5.506,0,0,0,.277-.83c.014-.053.027-.1.04-.158a2.148,2.148,0,0,1,.762-1.179,5.794,5.794,0,0,0,.75-.712,3.816,3.816,0,0,0,.878-.981c.212-.375.524-.9.8-1.517s.65-1.725.878-2.139c.309-.56.3-1.07.765-1.553a2,2,0,0,0,.552-1.626A1.376,1.376,0,0,1,153.283,74.036Z" fill="#9ad1e2"/>
        </g>
      </g>
    </g>
    <g id="Group_9" data-name="Group 9">
      <path id="Path_14337" data-name="Path 14337" d="M198.467,43.459a20.915,20.915,0,0,1-4.809,7.332,20.061,20.061,0,0,0-3.2-2.253,15.029,15.029,0,0,0,4.2-6.02Zm6.558-1.21H192.582V20.658h12.443Zm-3.9-18.43h-4.776V26.88h4.776Zm0,6.02h-4.776v3.128h4.776Zm0,6.087h-4.776v3.128h4.776Zm1.312,6.525a24.535,24.535,0,0,1,3.7,5.381l-3.364,1.715a26.489,26.489,0,0,0-3.564-5.684Zm19.808-11.5h-3.633V46.217c0,2.018-.4,3.1-1.547,3.733-1.176.639-2.824.841-5.279.841a14.777,14.777,0,0,0-1.346-3.935c1.547.067,3.027.067,3.532.067.5-.033.706-.2.706-.706V35.96a32.743,32.743,0,0,1-7.1,9.518,18.826,18.826,0,0,0-2.724-2.926c3.363-2.523,6.491-7.029,8.441-11.6h-7.4v-3.7h8.778v-7.8h3.934v7.8h3.633Z" fill="#9ad1e2"/>
      <path id="Path_14338" data-name="Path 14338" d="M254.288,20.457V50.724h-3.8V49.143H229.67v1.648h-3.6V20.457Zm-3.8,25.659V23.483H229.67V46.116Zm-.74-4.809H245.41v2.152c0,1.278-.269,1.716-1.211,1.985a16.657,16.657,0,0,1-4.1.269,8.72,8.72,0,0,0-.807-1.984c.941.033,2.051.033,2.354,0,.336,0,.471-.1.471-.4V41.307h-5.953a14.154,14.154,0,0,1,2.254,2.724l-2.657,1.312a15.546,15.546,0,0,0-2.321-3.027l2.119-1.009h-5.213V39.155h11.771V38.18h3.3v.975h1.782a12.516,12.516,0,0,0-.975-1.143c-5.549.2-11.1.369-15.2.437l-.135-2.119h7.5V35.22h-6.659V28.359h6.659V27.351h-7.6V25.2h7.6V23.954h3.262V25.2h7.668v2.153h-7.668v1.008h6.76V35.22h-1.682a19.542,19.542,0,0,1,2.792,2.623l-1.783,1.312h2.018Zm-15-10.324h3.632v-.976h-3.632Zm3.632,2.556v-.976h-3.632v.976Zm3.262-3.532v.976h3.565v-.976Zm3.565,2.556h-3.565v.976h3.565ZM241.643,36.3h2.69l-.37-.3,1.144-.774h-3.464Z" fill="#9ad1e2"/>
      <path id="Path_14339" data-name="Path 14339" d="M264.473,35.288a31.055,31.055,0,0,0-6.289-3.633l2.119-2.993a30.685,30.685,0,0,1,6.389,3.3ZM259.361,47.7A92.5,92.5,0,0,0,265.717,37.1l2.959,2.69c-1.782,3.5-3.934,7.331-5.919,10.594Zm7.062-21.322a31.687,31.687,0,0,0-6.255-3.732l2.186-2.96a32.3,32.3,0,0,1,6.39,3.4Zm19.17,24.382a15.447,15.447,0,0,0-1.177-2.959c-11.2,1.345-12.915,1.614-14.024,2.186a36.622,36.622,0,0,0-1.413-4c.773-.235,1.413-.942,2.186-2.152a49.445,49.445,0,0,0,3.565-7.2h-6.323V32.866h7.971V28.124h-6.626v-3.8h6.626V19.313h4.069v5.011h6.861v3.8h-6.861v4.742h8.105v3.767H279.4a63.449,63.449,0,0,1-4.674,8.642l7.9-.806A38.549,38.549,0,0,0,280.38,41l3.262-1.614c2.219,2.926,4.674,6.827,5.549,9.551Z" fill="#9ad1e2"/>
      <path id="Path_14340" data-name="Path 14340" d="M309.364,19.38c-.034,1.413-.1,3.229-.236,5.246.471,4.541,2.523,17.219,14.26,22.4a10.682,10.682,0,0,0-2.926,3.464c-7.466-3.565-11.2-10.122-13.15-15.907A27.393,27.393,0,0,1,294.937,50.69a12.856,12.856,0,0,0-3.33-3.262c13.654-7.3,13.015-22.364,13.149-28.048Z" fill="#9ad1e2"/>
      <path id="Path_14341" data-name="Path 14341" d="M356.273,37v3.061h-30.5V37h5.885a10.614,10.614,0,0,0-1.143-2.32l2.556-.538H326.88V31.218h11.973V29.873h-8.846V27.048h8.846V25.8H327.821V22.912h5.684a14.568,14.568,0,0,0-1.446-2.657l3.632-1.076a11.335,11.335,0,0,1,1.783,3.026l-2.052.707h8.912a24.157,24.157,0,0,0,1.614-3.633l4.238.673a26.8,26.8,0,0,1-1.715,2.96h5.75V25.8H342.989v1.244h9.08v2.825h-9.08v1.345H355.23v2.926h-6.188l2.725.4c-.438.942-.841,1.716-1.178,2.455Zm-25.929,4.305H351.8V50.69h-4.1v-.941H334.278v1.042h-3.934Zm4.035-7.163a9.364,9.364,0,0,1,1.312,2.489L334.144,37H346.52a30.15,30.15,0,0,0,1.076-2.858Zm-.1,10.224v2.32H347.7v-2.32Z" fill="#9ad1e2"/>
      <path id="Path_14342" data-name="Path 14342" d="M369.989,40.8a36.5,36.5,0,0,0-2.018-3.7V50.757H364.1V38.65a31.27,31.27,0,0,1-3.667,6.659,22.033,22.033,0,0,0-1.849-3.8,31.569,31.569,0,0,0,4.977-9.013h-4.54V28.763H364.1v-3.8c-1.312.2-2.557.4-3.8.538a12.12,12.12,0,0,0-1.076-3.094,51.257,51.257,0,0,0,10.829-2.758l2.253,3.263a30.109,30.109,0,0,1-4.338,1.244v4.607h4.439V32.5h-4.439v.269c.975.942,3.733,4.1,4.372,4.877Zm16.579,1.446v8.475h-3.934V42.955L372.478,44.7l-.64-3.8,10.8-1.85V19.347h3.934V38.381l3.33-.571.639,3.732Zm-8.441-4.675a30.34,30.34,0,0,0-5.347-5.145l2.556-2.287a29.6,29.6,0,0,1,5.515,4.877ZM379,28.7a25.24,25.24,0,0,0-5.01-5.045l2.623-2.287a26.884,26.884,0,0,1,5.179,4.843Z" fill="#9ad1e2"/>
      <path id="Path_14343" data-name="Path 14343" d="M421.976,29.167a38.717,38.717,0,0,1-3.632,12.51A15.539,15.539,0,0,0,424.3,47.26a15.613,15.613,0,0,0-2.757,3.5,17.989,17.989,0,0,1-5.65-5.381,22.359,22.359,0,0,1-7.13,5.516,16.8,16.8,0,0,0-2.287-3.632,16.882,16.882,0,0,0,7.231-5.751,42.31,42.31,0,0,1-2.287-6.793c-.5.807-1.009,1.614-1.547,2.32a23.657,23.657,0,0,0-2.22-2.085,33.556,33.556,0,0,1-4.641,4.339v.84l5.886-.5v3.4c-1.951.2-3.935.4-5.886.572v3.329c0,1.749-.3,2.657-1.48,3.195a12.374,12.374,0,0,1-4.876.572,11.578,11.578,0,0,0-1.143-3.4c1.311.034,2.758.034,3.2.034.437-.034.571-.135.571-.471V43.964c-2.32.235-4.54.437-6.389.639l-.4-3.565c1.883-.168,4.237-.336,6.793-.572V38.617a24.573,24.573,0,0,0,2.791-2.354h-3.5a31.292,31.292,0,0,1-3.766,2.421,24.593,24.593,0,0,0-2.657-3.027,28.81,28.81,0,0,0,6.39-4.2h-5.987V28.023h5.112V25.77h-3.834V22.407h3.834v-3.06h3.7v3.06h2.994V24.56a29.635,29.635,0,0,0,2.186-4.372l3.665,1.076a36.239,36.239,0,0,1-3.7,6.759h2.388V30.68a41.1,41.1,0,0,0,3.262-11.333l4.069.638c-.336,1.85-.74,3.734-1.211,5.482h8.946v3.7ZM401.36,28.023h.538a21.655,21.655,0,0,0,1.682-2.253h-2.22Zm5.516,5.886a17.45,17.45,0,0,0,1.614-2.455h-4.708a19.172,19.172,0,0,1-1.581,1.715h2.792l.706-.2Zm7.129-4.742A41.711,41.711,0,0,0,416.057,37a37.9,37.9,0,0,0,1.782-7.835Z" fill="#9ad1e2"/>
      <path id="Path_14344" data-name="Path 14344" d="M456.744,25.7h-6.995a41.382,41.382,0,0,1,5.919,5.213l-3.06,1.917h1.412V46.486c0,2.153-.572,3.027-2.186,3.532-1.581.47-4.035.437-7.3.437a12.5,12.5,0,0,0-.942-3.4c1.849.134,4.607.134,5.179.1.672-.034.874-.2.874-.74V44c-4.943,1.076-9.92,2.085-13.822,2.892l-1.177-3.531c2.791-.37,6.961-.976,11.333-1.648a52.492,52.492,0,0,0-10.559-2.724L436.6,36.6a49.452,49.452,0,0,1,11.467,2.757l-1.042,2.186,2.623-.4V36.128H434.615v2.085c0,3.935-.6,9.417-3.665,12.914a14.374,14.374,0,0,0-3.3-2.354c2.758-3.094,3.027-7.432,3.027-10.627V32.833H451.9a24.111,24.111,0,0,0-1.648-1.783c-16.411.639-18.395.673-19.841,1.177-.2-.773-.808-2.623-1.211-3.665a8.055,8.055,0,0,0,3.027-1.648,18.071,18.071,0,0,0,1.513-1.211h-6.793V22.2h10.56a32.534,32.534,0,0,0,2.858-3.262l4.07,1.547q-.758.858-1.615,1.715h13.923Zm-9.786,2.354c-.707-.538-1.379-1.077-2.018-1.547l1.345-.807h-7.163c-1.143.975-2.253,1.849-3.363,2.656Z" fill="#9ad1e2"/>
      <path id="Path_14345" data-name="Path 14345" d="M484.988,38.415a19.759,19.759,0,0,0,6.558,3.9,13.756,13.756,0,0,0-2.656,3.094,22.637,22.637,0,0,1-5.281-3.531v2.489h-6.12v2.186h10.963v3.3H462.859v-3.3h10.56V44.368h-5.952V42.283a23.344,23.344,0,0,1-5.347,3.43,14.911,14.911,0,0,0-2.556-3.061,20.306,20.306,0,0,0,6.793-4.237h-6.49V35.153h6.423V25.131h-4.641V21.9h4.641V19.38h4V21.9h10.526V19.38h4.1V21.9h4.607v3.229h-4.607V35.153h6.222v3.262Zm-2.118,2.792a20.916,20.916,0,0,1-2.422-2.792h-9.484a20.621,20.621,0,0,1-2.387,2.792h4.842V39.121h4.07v2.086ZM470.292,25.131v1.48h10.526v-1.48Zm0,5.717h10.526V29.369H470.292Zm0,4.305h10.526V33.64H470.292Z" fill="#9ad1e2"/>
      <path id="Path_14346" data-name="Path 14346" d="M511.249,32.731v3.5h10.728v3.6h-5.314l3.363,1.21c-1.177,1.883-2.489,3.9-3.531,5.347h7.23v3.666h-29.09V46.385h6.625a27.9,27.9,0,0,0-2.791-5.447l2.656-1.11h-4.876v-3.6h10.7v-3.5h-6.827V31.083Q498,32.093,495.778,32.9a14.508,14.508,0,0,0-2.656-3.7c6.322-1.816,12.376-5.212,15.57-10.223l3.8,1.715c-.3.437-.606.874-.942,1.345A37.271,37.271,0,0,0,525.339,29.2a19.446,19.446,0,0,0-2.757,3.5,44.3,44.3,0,0,1-4.574-1.951v1.984Zm-9.384,7.1a23.052,23.052,0,0,1,2.927,5.347l-2.758,1.21h4.91V39.828Zm13.184-10.762a38.77,38.77,0,0,1-5.819-4.372,29.865,29.865,0,0,1-5.448,4.372Zm-3.8,10.762v6.557h4.2l-2.253-.941a30.822,30.822,0,0,0,2.959-5.616Z" fill="#9ad1e2"/>
      <path id="Path_14347" data-name="Path 14347" d="M545.613,20.322c-.168.2-.336.437-.5.639,3.094,2.69,8.609,5.011,13.956,6.053a13.778,13.778,0,0,0-2.522,3.061c-.672-.168-1.379-.4-2.085-.606v8.677H531.085V29.671c-.706.236-1.413.471-2.085.639a21.54,21.54,0,0,0-2.152-3.094c6.188-1.446,12.173-4.237,15.234-8.138Zm7.634,8.71a37.154,37.154,0,0,1-4.573-2.052v.875h-11.8v-.672a40.69,40.69,0,0,1-4.069,1.849ZM532.968,39.256h19.775V50.623h-4.1v-.807H536.9v.908h-3.935Zm3.8-3.531a13.313,13.313,0,0,0-1.144-3.5l2.589-.74h-3.8v4.238Zm.134,6.154v1.345H548.64V41.879Zm11.737,5.313V45.847H536.9v1.345Zm-7.634-15.705h-2.623a15.256,15.256,0,0,1,1.345,3.565l-2.152.673h3.43Zm4.843-6.221a33.022,33.022,0,0,1-2.826-2.186c-.874.739-1.849,1.48-2.858,2.186Zm-1.615,6.221v4.238h3.128l-2.018-.572a26.323,26.323,0,0,0,1.312-3.666Zm6.659,0h-3.5l2.623.639c-.673,1.345-1.312,2.657-1.85,3.6h2.724Z" fill="#9ad1e2"/>
    </g>
    <g id="Group_10" data-name="Group 10">
      <path id="Path_14348" data-name="Path 14348" d="M192.571,73.025l3.31-.321a4.043,4.043,0,0,0,1.213,2.448,3.667,3.667,0,0,0,2.466.782,3.789,3.789,0,0,0,2.477-.7,2.071,2.071,0,0,0,.833-1.626,1.534,1.534,0,0,0-.351-1.018,2.8,2.8,0,0,0-1.224-.729q-.6-.207-2.724-.736a9.234,9.234,0,0,1-3.839-1.667,4.382,4.382,0,0,1-1.552-3.391,4.329,4.329,0,0,1,.73-2.408,4.563,4.563,0,0,1,2.1-1.706,8.414,8.414,0,0,1,3.317-.587,7.112,7.112,0,0,1,4.775,1.391,4.911,4.911,0,0,1,1.685,3.713l-3.4.149a2.89,2.89,0,0,0-.937-1.868,3.431,3.431,0,0,0-2.155-.569,3.889,3.889,0,0,0-2.322.609,1.229,1.229,0,0,0-.54,1.046,1.3,1.3,0,0,0,.505,1.023,8.942,8.942,0,0,0,3.127,1.127,16.514,16.514,0,0,1,3.673,1.213,4.733,4.733,0,0,1,1.862,1.712,5.308,5.308,0,0,1-.132,5.4,4.828,4.828,0,0,1-2.276,1.879,9.551,9.551,0,0,1-3.667.615,7.3,7.3,0,0,1-4.908-1.477A6.42,6.42,0,0,1,192.571,73.025Z" fill="#9ad1e2"/>
      <path id="Path_14349" data-name="Path 14349" d="M218.116,70.025l-2.931-.528a4.571,4.571,0,0,1,1.7-2.621,6.227,6.227,0,0,1,3.587-.851,7.727,7.727,0,0,1,3.218.512,3.214,3.214,0,0,1,1.489,1.3,6.669,6.669,0,0,1,.43,2.891l-.034,3.77a13.122,13.122,0,0,0,.155,2.373,6.923,6.923,0,0,0,.581,1.638h-3.2q-.126-.321-.31-.954c-.054-.191-.092-.318-.115-.379a5.834,5.834,0,0,1-1.77,1.207,5.077,5.077,0,0,1-2.012.4,4.158,4.158,0,0,1-2.971-1.023,3.4,3.4,0,0,1-1.086-2.586,3.475,3.475,0,0,1,.494-1.845,3.224,3.224,0,0,1,1.385-1.241,10.767,10.767,0,0,1,2.569-.753,17.556,17.556,0,0,0,3.138-.794v-.321a1.675,1.675,0,0,0-.459-1.328,2.761,2.761,0,0,0-1.736-.4,2.312,2.312,0,0,0-1.345.339A2.352,2.352,0,0,0,218.116,70.025Zm4.322,2.621q-.621.207-1.965.495a5.9,5.9,0,0,0-1.759.563,1.344,1.344,0,0,0-.632,1.138,1.583,1.583,0,0,0,.505,1.172,1.766,1.766,0,0,0,1.288.494,2.8,2.8,0,0,0,1.667-.574,2.03,2.03,0,0,0,.77-1.069,6.4,6.4,0,0,0,.126-1.575Z" fill="#9ad1e2"/>
      <path id="Path_14350" data-name="Path 14350" d="M246.49,78.508h-3.23v-6.23a9.62,9.62,0,0,0-.207-2.557,1.8,1.8,0,0,0-.673-.9,1.924,1.924,0,0,0-1.12-.321,2.585,2.585,0,0,0-1.506.46,2.317,2.317,0,0,0-.914,1.218,10.523,10.523,0,0,0-.247,2.8v5.529h-3.23V66.3h3v1.793a5,5,0,0,1,5.977-1.684,3.283,3.283,0,0,1,1.339.983,3.58,3.58,0,0,1,.633,1.357,10.129,10.129,0,0,1,.178,2.172Z" fill="#9ad1e2"/>
      <path id="Path_14351" data-name="Path 14351" d="M267.162,72.313l3.3,1.046a7.393,7.393,0,0,1-2.523,4.1,7.937,7.937,0,0,1-9.994-.955,8.77,8.77,0,0,1-2.161-6.27,9.209,9.209,0,0,1,2.173-6.534,7.447,7.447,0,0,1,5.712-2.328A7,7,0,0,1,268.69,63.2a6.649,6.649,0,0,1,1.725,3.1l-3.369.805a3.481,3.481,0,0,0-3.551-2.828,3.834,3.834,0,0,0-3.04,1.345,6.592,6.592,0,0,0-1.167,4.356q0,3.2,1.149,4.552a3.733,3.733,0,0,0,2.989,1.357,3.406,3.406,0,0,0,2.333-.863A5.008,5.008,0,0,0,267.162,72.313Z" fill="#9ad1e2"/>
      <path id="Path_14352" data-name="Path 14352" d="M279.2,72.232a6.6,6.6,0,0,1,.794-3.115,5.442,5.442,0,0,1,2.247-2.3,6.674,6.674,0,0,1,3.247-.793,6.1,6.1,0,0,1,4.54,1.8,6.215,6.215,0,0,1,1.77,4.546,6.29,6.29,0,0,1-1.787,4.592,6.041,6.041,0,0,1-4.5,1.822,7.083,7.083,0,0,1-3.2-.759,5.193,5.193,0,0,1-2.316-2.224A7.406,7.406,0,0,1,279.2,72.232Zm3.311.173a4.046,4.046,0,0,0,.862,2.782,2.819,2.819,0,0,0,4.247,0,4.1,4.1,0,0,0,.857-2.8,4.027,4.027,0,0,0-.857-2.759,2.819,2.819,0,0,0-4.247,0A4.044,4.044,0,0,0,282.512,72.4Z" fill="#9ad1e2"/>
      <path id="Path_14353" data-name="Path 14353" d="M312.115,78.508h-3V76.715a4.83,4.83,0,0,1-1.764,1.557,4.514,4.514,0,0,1-2.052.512,4.65,4.65,0,0,1-3.6-1.695,6.9,6.9,0,0,1-1.5-4.73,6.819,6.819,0,0,1,1.46-4.719,4.761,4.761,0,0,1,3.69-1.615,4.568,4.568,0,0,1,3.54,1.7v-6.07h3.23Zm-8.62-6.368a5.581,5.581,0,0,0,.54,2.828,2.44,2.44,0,0,0,2.184,1.264,2.374,2.374,0,0,0,1.9-.948,4.375,4.375,0,0,0,.782-2.833,4.788,4.788,0,0,0-.759-3.029,2.493,2.493,0,0,0-3.867-.011A4.123,4.123,0,0,0,303.495,72.14Z" fill="#9ad1e2"/>
      <path id="Path_14354" data-name="Path 14354" d="M328.959,74.623l3.219.541a5.279,5.279,0,0,1-1.96,2.695,5.757,5.757,0,0,1-3.35.925,5.461,5.461,0,0,1-4.713-2.08,6.988,6.988,0,0,1-1.207-4.207,6.743,6.743,0,0,1,1.586-4.753,5.223,5.223,0,0,1,4.011-1.719,5.422,5.422,0,0,1,4.3,1.8q1.575,1.8,1.505,5.512h-8.092a3.265,3.265,0,0,0,.782,2.235,2.443,2.443,0,0,0,1.862.8,1.982,1.982,0,0,0,1.276-.413A2.562,2.562,0,0,0,328.959,74.623Zm.185-3.264a3.107,3.107,0,0,0-.725-2.132,2.331,2.331,0,0,0-3.425.04,2.977,2.977,0,0,0-.678,2.092Z" fill="#9ad1e2"/>
      <path id="Path_14355" data-name="Path 14355" d="M367.884,78.508V61.657h11.552v2.851h-8.15V68.5h7.035v2.85h-7.035v7.161Z" fill="#9ad1e2"/>
      <path id="Path_14356" data-name="Path 14356" d="M388.061,72.232a6.615,6.615,0,0,1,.793-3.115,5.45,5.45,0,0,1,2.248-2.3,6.674,6.674,0,0,1,3.247-.793,6.1,6.1,0,0,1,4.54,1.8,6.215,6.215,0,0,1,1.77,4.546,6.29,6.29,0,0,1-1.787,4.592,6.041,6.041,0,0,1-4.5,1.822,7.09,7.09,0,0,1-3.2-.759,5.2,5.2,0,0,1-2.316-2.224A7.417,7.417,0,0,1,388.061,72.232Zm3.311.173a4.046,4.046,0,0,0,.862,2.782,2.819,2.819,0,0,0,4.247,0,4.1,4.1,0,0,0,.856-2.8,4.027,4.027,0,0,0-.856-2.759,2.819,2.819,0,0,0-4.247,0A4.044,4.044,0,0,0,391.372,72.4Z" fill="#9ad1e2"/>
      <path id="Path_14357" data-name="Path 14357" d="M417.813,78.508V76.681a4.7,4.7,0,0,1-1.752,1.54,4.923,4.923,0,0,1-2.293.563,4.484,4.484,0,0,1-2.207-.54,3.186,3.186,0,0,1-1.414-1.517,6.761,6.761,0,0,1-.437-2.7V66.3h3.23v5.61a15.622,15.622,0,0,0,.178,3.155,1.717,1.717,0,0,0,.65.919,1.994,1.994,0,0,0,1.2.339,2.54,2.54,0,0,0,1.483-.454,2.3,2.3,0,0,0,.9-1.126,13.064,13.064,0,0,0,.242-3.293V66.3h3.229V78.508Z" fill="#9ad1e2"/>
      <path id="Path_14358" data-name="Path 14358" d="M441.854,78.508h-3.23v-6.23a9.62,9.62,0,0,0-.207-2.557,1.8,1.8,0,0,0-.672-.9,1.927,1.927,0,0,0-1.121-.321,2.585,2.585,0,0,0-1.506.46,2.316,2.316,0,0,0-.914,1.218,10.566,10.566,0,0,0-.247,2.8v5.529h-3.23V66.3h3v1.793A5,5,0,0,1,439.7,66.41a3.28,3.28,0,0,1,1.338.983,3.565,3.565,0,0,1,.633,1.357,10.128,10.128,0,0,1,.178,2.172Z" fill="#9ad1e2"/>
      <path id="Path_14359" data-name="Path 14359" d="M462.917,78.508h-3V76.715a4.84,4.84,0,0,1-1.765,1.557,4.514,4.514,0,0,1-2.052.512,4.649,4.649,0,0,1-3.6-1.695,6.9,6.9,0,0,1-1.5-4.73,6.814,6.814,0,0,1,1.46-4.719,4.76,4.76,0,0,1,3.689-1.615,4.571,4.571,0,0,1,3.541,1.7v-6.07h3.23ZM454.3,72.14a5.592,5.592,0,0,0,.54,2.828,2.44,2.44,0,0,0,2.184,1.264,2.377,2.377,0,0,0,1.9-.948,4.381,4.381,0,0,0,.781-2.833,4.788,4.788,0,0,0-.759-3.029A2.4,2.4,0,0,0,457,68.5a2.423,2.423,0,0,0-1.925.914A4.123,4.123,0,0,0,454.3,72.14Z" fill="#9ad1e2"/>
      <path id="Path_14360" data-name="Path 14360" d="M475.105,70.025l-2.931-.528a4.571,4.571,0,0,1,1.7-2.621,6.227,6.227,0,0,1,3.587-.851,7.727,7.727,0,0,1,3.218.512,3.214,3.214,0,0,1,1.489,1.3,6.665,6.665,0,0,1,.431,2.891l-.035,3.77a13.007,13.007,0,0,0,.156,2.373,6.917,6.917,0,0,0,.58,1.638h-3.2q-.126-.321-.31-.954c-.053-.191-.092-.318-.115-.379a5.822,5.822,0,0,1-1.77,1.207,5.073,5.073,0,0,1-2.012.4,4.16,4.16,0,0,1-2.971-1.023,3.4,3.4,0,0,1-1.086-2.586,3.475,3.475,0,0,1,.494-1.845,3.23,3.23,0,0,1,1.385-1.241,10.763,10.763,0,0,1,2.57-.753,17.538,17.538,0,0,0,3.137-.794v-.321a1.675,1.675,0,0,0-.459-1.328,2.759,2.759,0,0,0-1.736-.4,2.312,2.312,0,0,0-1.345.339A2.358,2.358,0,0,0,475.105,70.025Zm4.322,2.621a20.211,20.211,0,0,1-1.965.495,5.9,5.9,0,0,0-1.759.563,1.347,1.347,0,0,0-.632,1.138,1.58,1.58,0,0,0,.506,1.172,1.762,1.762,0,0,0,1.287.494,2.8,2.8,0,0,0,1.667-.574,2.03,2.03,0,0,0,.77-1.069,6.4,6.4,0,0,0,.126-1.575Z" fill="#9ad1e2"/>
      <path id="Path_14361" data-name="Path 14361" d="M497.973,66.3v2.575h-2.207v4.919a12.278,12.278,0,0,0,.063,1.742.706.706,0,0,0,.288.408.912.912,0,0,0,.546.161,4.176,4.176,0,0,0,1.3-.311l.276,2.506a6.415,6.415,0,0,1-2.551.483,4.034,4.034,0,0,1-1.575-.293,2.3,2.3,0,0,1-1.029-.759,3,3,0,0,1-.454-1.258,15.619,15.619,0,0,1-.1-2.276V68.876h-1.482V66.3h1.482V63.876l3.242-1.885V66.3Z" fill="#9ad1e2"/>
      <path id="Path_14362" data-name="Path 14362" d="M506.806,64.646V61.657h3.23v2.989Zm0,13.862V66.3h3.23V78.508Z" fill="#9ad1e2"/>
      <path id="Path_14363" data-name="Path 14363" d="M519.19,72.232a6.6,6.6,0,0,1,.794-3.115,5.448,5.448,0,0,1,2.247-2.3,6.676,6.676,0,0,1,3.247-.793,6.1,6.1,0,0,1,4.541,1.8,6.219,6.219,0,0,1,1.77,4.546A6.291,6.291,0,0,1,530,76.962a6.038,6.038,0,0,1-4.5,1.822,7.084,7.084,0,0,1-3.2-.759,5.2,5.2,0,0,1-2.316-2.224A7.406,7.406,0,0,1,519.19,72.232Zm3.311.173a4.051,4.051,0,0,0,.862,2.782,2.819,2.819,0,0,0,4.247,0,4.1,4.1,0,0,0,.857-2.8,4.027,4.027,0,0,0-.857-2.759,2.819,2.819,0,0,0-4.247,0A4.049,4.049,0,0,0,522.5,72.4Z" fill="#9ad1e2"/>
      <path id="Path_14364" data-name="Path 14364" d="M552.012,78.508h-3.23v-6.23a9.62,9.62,0,0,0-.207-2.557,1.8,1.8,0,0,0-.672-.9,1.927,1.927,0,0,0-1.121-.321,2.589,2.589,0,0,0-1.506.46,2.316,2.316,0,0,0-.914,1.218,10.566,10.566,0,0,0-.247,2.8v5.529h-3.23V66.3h3v1.793a5,5,0,0,1,5.978-1.684,3.284,3.284,0,0,1,1.339.983,3.578,3.578,0,0,1,.632,1.357,10.062,10.062,0,0,1,.178,2.172Z" fill="#9ad1e2"/>
    </g>
  </g>
</svg>
